REM DIRINDEX 1\2,1\3,1\4,1\5,1\6,1\7,1\8
REM DIRNAME folder01,folder02,folder03,folder04,folder05,folder06,folder07,folder08
TITLE ""
FILE "33_Ch7_Health_Beauty_Tweets.mp3" MP3
  TRACK 01 AUDIO
    TITLE "0:"
    INDEX 01 00:00:00
  TRACK 02 AUDIO
    TITLE "8:cjc152_1817"
    INDEX 01 00:00:07
  TRACK 03 AUDIO
    TITLE "0:"
    INDEX 01 00:03:15
  TRACK 04 AUDIO
    TITLE "8:cjc152_1818"
    INDEX 01 00:04:27
  TRACK 05 AUDIO
    TITLE "0:"
    INDEX 01 00:05:65
  TRACK 06 AUDIO
    TITLE "4:cjc152_1819"
    INDEX 01 00:06:59
  TRACK 07 AUDIO
    TITLE "0:"
    INDEX 01 00:08:62
  TRACK 08 AUDIO
    TITLE "4:cjc152_1820"
    INDEX 01 00:09:53
  TRACK 09 AUDIO
    TITLE "0:"
    INDEX 01 00:12:54
  TRACK 10 AUDIO
    TITLE "4:cjc152_1821"
    INDEX 01 00:14:39
  TRACK 11 AUDIO
    TITLE "0:"
    INDEX 01 00:17:33
  TRACK 12 AUDIO
    TITLE "4:cjc152_1822"
    INDEX 01 00:18:25
  TRACK 13 AUDIO
    TITLE "0:"
    INDEX 01 00:20:63
  TRACK 14 AUDIO
    TITLE "4:cjc152_1823"
    INDEX 01 00:22:48
  TRACK 15 AUDIO
    TITLE "0:"
    INDEX 01 00:24:25
  TRACK 16 AUDIO
    TITLE "4:cjc152_1824"
    INDEX 01 00:25:19
  TRACK 17 AUDIO
    TITLE "0:"
    INDEX 01 00:28:19
  TRACK 18 AUDIO
    TITLE "4:cjc152_1825"
    INDEX 01 00:30:03
  TRACK 19 AUDIO
    TITLE "0:"
    INDEX 01 00:33:30
  TRACK 20 AUDIO
    TITLE "4:cjc152_1826"
    INDEX 01 00:34:22
  TRACK 21 AUDIO
    TITLE "0:"
    INDEX 01 00:38:14
  TRACK 22 AUDIO
    TITLE "4:cjc152_1827"
    INDEX 01 00:39:72
  TRACK 23 AUDIO
    TITLE "0:"
    INDEX 01 00:41:67
  TRACK 24 AUDIO
    TITLE "4:cjc152_1828"
    INDEX 01 00:42:59
  TRACK 25 AUDIO
    TITLE "0:"
    INDEX 01 00:45:57
  TRACK 26 AUDIO
    TITLE "4:cjc152_1829"
    INDEX 01 00:47:40
  TRACK 27 AUDIO
    TITLE "0:"
    INDEX 01 00:49:69
  TRACK 28 AUDIO
    TITLE "4:cjc152_1830"
    INDEX 01 00:50:62
  TRACK 29 AUDIO
    TITLE "0:"
    INDEX 01 00:54:48
  TRACK 30 AUDIO
    TITLE "4:cjc152_1831"
    INDEX 01 00:56:33
  TRACK 31 AUDIO
    TITLE "0:"
    INDEX 01 01:00:72
  TRACK 32 AUDIO
    TITLE "4:cjc152_1832"
    INDEX 01 01:01:64
  TRACK 33 AUDIO
    TITLE "0:"
    INDEX 01 01:05:26
  TRACK 34 AUDIO
    TITLE "4:cjc152_1833"
    INDEX 01 01:07:14
  TRACK 35 AUDIO
    TITLE "0:"
    INDEX 01 01:13:08
  TRACK 36 AUDIO
    TITLE "4:cjc152_1834"
    INDEX 01 01:14:02
  TRACK 37 AUDIO
    TITLE "0:"
    INDEX 01 01:21:43
  TRACK 38 AUDIO
    TITLE "4:cjc152_1835"
    INDEX 01 01:23:44
  TRACK 39 AUDIO
    TITLE "0:"
    INDEX 01 01:26:56
  TRACK 40 AUDIO
    TITLE "4:cjc152_1836"
    INDEX 01 01:27:51
  TRACK 41 AUDIO
    TITLE "0:"
    INDEX 01 01:30:73
  TRACK 42 AUDIO
    TITLE "4:cjc152_1837"
    INDEX 01 01:32:59
  TRACK 43 AUDIO
    TITLE "0:"
    INDEX 01 01:35:39
  TRACK 44 AUDIO
    TITLE "4:cjc152_1838"
    INDEX 01 01:36:31
  TRACK 45 AUDIO
    TITLE "0:"
    INDEX 01 01:39:51
  TRACK 46 AUDIO
    TITLE "4:cjc152_1839"
    INDEX 01 01:41:34
  TRACK 47 AUDIO
    TITLE "0:"
    INDEX 01 01:45:40
  TRACK 48 AUDIO
    TITLE "4:cjc152_1840"
    INDEX 01 01:46:33
  TRACK 49 AUDIO
    TITLE "0:"
    INDEX 01 01:50:66
  TRACK 50 AUDIO
    TITLE "4:cjc152_1841"
    INDEX 01 01:52:51
  TRACK 51 AUDIO
    TITLE "0:"
    INDEX 01 01:55:71
  TRACK 52 AUDIO
    TITLE "4:cjc152_1842"
    INDEX 01 01:56:63
  TRACK 53 AUDIO
    TITLE "0:"
    INDEX 01 02:00:33
  TRACK 54 AUDIO
    TITLE "4:cjc152_1843"
    INDEX 01 02:02:17
  TRACK 55 AUDIO
    TITLE "0:"
    INDEX 01 02:07:18
  TRACK 56 AUDIO
    TITLE "4:cjc152_1844"
    INDEX 01 02:08:11
  TRACK 57 AUDIO
    TITLE "0:"
    INDEX 01 02:15:07
  TRACK 58 AUDIO
    TITLE "4:cjc152_1845"
    INDEX 01 02:16:66
  TRACK 59 AUDIO
    TITLE "0:"
    INDEX 01 02:19:39
  TRACK 60 AUDIO
    TITLE "4:cjc152_1846"
    INDEX 01 02:20:28
  TRACK 61 AUDIO
    TITLE "0:"
    INDEX 01 02:24:30
  TRACK 62 AUDIO
    TITLE "4:cjc152_1847"
    INDEX 01 02:26:13
  TRACK 63 AUDIO
    TITLE "0:"
    INDEX 01 02:29:35
  TRACK 64 AUDIO
    TITLE "4:cjc152_1848"
    INDEX 01 02:30:29
  TRACK 65 AUDIO
    TITLE "0:"
    INDEX 01 02:33:60
  TRACK 66 AUDIO
    TITLE "4:cjc152_1849"
    INDEX 01 02:35:45
  TRACK 67 AUDIO
    TITLE "0:"
    INDEX 01 02:38:05
  TRACK 68 AUDIO
    TITLE "4:cjc152_1850"
    INDEX 01 02:38:69
  TRACK 69 AUDIO
    TITLE "0:"
    INDEX 01 02:42:73
  TRACK 70 AUDIO
    TITLE "4:cjc152_1851"
    INDEX 01 02:44:70
  TRACK 71 AUDIO
    TITLE "0:"
    INDEX 01 02:49:44
  TRACK 72 AUDIO
    TITLE "4:cjc152_1852"
    INDEX 01 02:50:37
  TRACK 73 AUDIO
    TITLE "0:"
    INDEX 01 02:54:68
  TRACK 74 AUDIO
    TITLE "4:cjc152_1853"
    INDEX 01 02:56:51
  TRACK 75 AUDIO
    TITLE "0:"
    INDEX 01 02:58:66
  TRACK 76 AUDIO
    TITLE "4:cjc152_1854"
    INDEX 01 02:59:60
  TRACK 77 AUDIO
    TITLE "0:"
    INDEX 01 03:02:17
  TRACK 78 AUDIO
    TITLE "4:cjc152_1855"
    INDEX 01 03:04:14
  TRACK 79 AUDIO
    TITLE "0:"
    INDEX 01 03:07:51
  TRACK 80 AUDIO
    TITLE "4:cjc152_1856"
    INDEX 01 03:08:43
  TRACK 81 AUDIO
    TITLE "0:"
    INDEX 01 03:12:72
  TRACK 82 AUDIO
    TITLE "4:cjc152_1857"
    INDEX 01 03:14:57
  TRACK 83 AUDIO
    TITLE "0:"
    INDEX 01 03:17:61
  TRACK 84 AUDIO
    TITLE "4:cjc152_1858"
    INDEX 01 03:18:55
  TRACK 85 AUDIO
    TITLE "0:"
    INDEX 01 03:21:32
  TRACK 86 AUDIO
    TITLE "4:cjc152_1859"
    INDEX 01 03:23:17
  TRACK 87 AUDIO
    TITLE "0:"
    INDEX 01 03:25:63
  TRACK 88 AUDIO
    TITLE "4:cjc152_1860"
    INDEX 01 03:26:54
  TRACK 89 AUDIO
    TITLE "0:"
    INDEX 01 03:30:07
  TRACK 90 AUDIO
    TITLE "4:cjc152_1861"
    INDEX 01 03:31:65
  TRACK 91 AUDIO
    TITLE "0:"
    INDEX 01 03:34:34
  TRACK 92 AUDIO
    TITLE "4:cjc152_1862"
    INDEX 01 03:35:30
  TRACK 93 AUDIO
    TITLE "0:"
    INDEX 01 03:38:54
  TRACK 94 AUDIO
    TITLE "4:cjc152_1863"
    INDEX 01 03:40:37
  TRACK 95 AUDIO
    TITLE "0:"
    INDEX 01 03:44:33
  TRACK 96 AUDIO
    TITLE "4:cjc152_1864"
    INDEX 01 03:45:21
  TRACK 97 AUDIO
    TITLE "0:"
    INDEX 01 03:49:71
  TRACK 98 AUDIO
    TITLE "4:cjc152_1865"
    INDEX 01 03:51:56
  TRACK 99 AUDIO
    TITLE "0:"
    INDEX 01 03:57:14
  TRACK 100 AUDIO
    TITLE "4:cjc152_1866"
    INDEX 01 03:58:06
  TRACK 101 AUDIO
    TITLE "0:"
    INDEX 01 04:03:24
  TRACK 102 AUDIO
    TITLE "4:cjc152_1867"
    INDEX 01 04:05:08
  TRACK 103 AUDIO
    TITLE "0:"
    INDEX 01 04:10:03
  TRACK 104 AUDIO
    TITLE "4:cjc152_1868"
    INDEX 01 04:10:66
  TRACK 105 AUDIO
    TITLE "0:"
    INDEX 01 04:15:71
  TRACK 106 AUDIO
    TITLE "4:cjc152_1869"
    INDEX 01 04:17:54
  TRACK 107 AUDIO
    TITLE "0:"
    INDEX 01 04:20:62
  TRACK 108 AUDIO
    TITLE "4:cjc152_1870"
    INDEX 01 04:21:54
  TRACK 109 AUDIO
    TITLE "0:"
    INDEX 01 04:27:19
  TRACK 110 AUDIO
    TITLE "4:cjc152_1871"
    INDEX 01 04:29:04
  TRACK 111 AUDIO
    TITLE "0:"
    INDEX 01 04:32:69
  TRACK 112 AUDIO
    TITLE "4:cjc152_1872"
    INDEX 01 04:33:69
  TRACK 113 AUDIO
    TITLE "0:"
    INDEX 01 04:38:15
  TRACK 114 AUDIO
    TITLE "4:cjc152_1873"
    INDEX 01 04:39:73
  TRACK 115 AUDIO
    TITLE "0:"
    INDEX 01 04:44:06
  TRACK 116 AUDIO
    TITLE "4:cjc152_1874"
    INDEX 01 04:44:74
  TRACK 117 AUDIO
    TITLE "0:"
    INDEX 01 04:49:68
  TRACK 118 AUDIO
    TITLE "4:cjc152_1875"
    INDEX 01 04:51:49
  TRACK 119 AUDIO
    TITLE "0:"
    INDEX 01 04:55:21
  TRACK 120 AUDIO
    TITLE "4:cjc152_1876"
    INDEX 01 04:56:13
  TRACK 121 AUDIO
    TITLE "0:"
    INDEX 01 05:00:16
  TRACK 122 AUDIO
    TITLE "4:cjc152_1877"
    INDEX 01 05:02:04
  TRACK 123 AUDIO
    TITLE "0:"
    INDEX 01 05:04:22
  TRACK 124 AUDIO
    TITLE "4:cjc152_1878"
    INDEX 01 05:05:16
  TRACK 125 AUDIO
    TITLE "0:"
    INDEX 01 05:07:32
  TRACK 126 AUDIO
    TITLE "4:cjc152_1879"
    INDEX 01 05:09:15
  TRACK 127 AUDIO
    TITLE "0:"
    INDEX 01 05:11:48
  TRACK 128 AUDIO
    TITLE "4:cjc152_1880"
    INDEX 01 05:12:37
  TRACK 129 AUDIO
    TITLE "0:"
    INDEX 01 05:14:73
  TRACK 130 AUDIO
    TITLE "4:cjc152_1881"
    INDEX 01 05:16:64
  TRACK 131 AUDIO
    TITLE "0:"
    INDEX 01 05:20:01
  TRACK 132 AUDIO
    TITLE "4:cjc152_1882"
    INDEX 01 05:20:68
  TRACK 133 AUDIO
    TITLE "0:"
    INDEX 01 05:24:48
  TRACK 134 AUDIO
    TITLE "4:cjc152_1883"
    INDEX 01 05:26:51
  TRACK 135 AUDIO
    TITLE "0:"
    INDEX 01 05:33:57
  TRACK 136 AUDIO
    TITLE "4:cjc152_1884"
    INDEX 01 05:34:64
  TRACK 137 AUDIO
    TITLE "0:"
    INDEX 01 05:41:49
  TRACK 138 AUDIO
    TITLE "4:cjc152_1885"
    INDEX 01 05:43:32
  TRACK 139 AUDIO
    TITLE "0:"
    INDEX 01 05:46:69
  TRACK 140 AUDIO
    TITLE "4:cjc152_1886"
    INDEX 01 05:47:63
  TRACK 141 AUDIO
    TITLE "0:"
    INDEX 01 05:51:31
  TRACK 142 AUDIO
    TITLE "4:cjc152_1887"
    INDEX 01 05:53:17
  TRACK 143 AUDIO
    TITLE "0:"
    INDEX 01 05:55:37
  TRACK 144 AUDIO
    TITLE "4:cjc152_1888"
    INDEX 01 05:56:33
  TRACK 145 AUDIO
    TITLE "0:"
    INDEX 01 05:58:49
  TRACK 146 AUDIO
    TITLE "4:cjc152_1889"
    INDEX 01 06:00:30
  TRACK 147 AUDIO
    TITLE "0:"
    INDEX 01 06:03:25
  TRACK 148 AUDIO
    TITLE "4:cjc152_1890"
    INDEX 01 06:04:18
  TRACK 149 AUDIO
    TITLE "0:"
    INDEX 01 06:07:36
  TRACK 150 AUDIO
    TITLE "4:cjc152_1891"
    INDEX 01 06:09:20
  TRACK 151 AUDIO
    TITLE "0:"
    INDEX 01 06:12:28
  TRACK 152 AUDIO
    TITLE "4:cjc152_1892"
    INDEX 01 06:13:19
  TRACK 153 AUDIO
    TITLE "0:"
    INDEX 01 06:16:00
  TRACK 154 AUDIO
    TITLE "4:cjc152_1893"
    INDEX 01 06:17:60
  TRACK 155 AUDIO
    TITLE "0:"
    INDEX 01 06:23:00
  TRACK 156 AUDIO
    TITLE "4:cjc152_1894"
    INDEX 01 06:24:07
  TRACK 157 AUDIO
    TITLE "0:"
    INDEX 01 06:29:63
  TRACK 158 AUDIO
    TITLE "4:cjc152_1895"
    INDEX 01 06:31:49
  TRACK 159 AUDIO
    TITLE "0:"
    INDEX 01 06:34:57
  TRACK 160 AUDIO
    TITLE "4:cjc152_1896"
    INDEX 01 06:35:48
  TRACK 161 AUDIO
    TITLE "0:"
    INDEX 01 06:41:55
  TRACK 162 AUDIO
    TITLE "4:cjc152_1897"
    INDEX 01 06:43:40
  TRACK 163 AUDIO
    TITLE "0:"
    INDEX 01 06:47:63
  TRACK 164 AUDIO
    TITLE "4:cjc152_1898"
    INDEX 01 06:48:55
  TRACK 165 AUDIO
    TITLE "0:"
    INDEX 01 06:54:08
  TRACK 166 AUDIO
    TITLE "4:cjc152_1899"
    INDEX 01 06:55:69
  TRACK 167 AUDIO
    TITLE "0:"
    INDEX 01 06:59:41
  TRACK 168 AUDIO
    TITLE "4:cjc152_1900"
    INDEX 01 07:00:35
  TRACK 169 AUDIO
    TITLE "0:"
    INDEX 01 07:03:37
  TRACK 170 AUDIO
    TITLE "4:cjc152_1901"
    INDEX 01 07:05:20
  TRACK 171 AUDIO
    TITLE "0:"
    INDEX 01 07:08:44
  TRACK 172 AUDIO
    TITLE "4:cjc152_1902"
    INDEX 01 07:09:35
  TRACK 173 AUDIO
    TITLE "0:"
    INDEX 01 07:13:12
  TRACK 174 AUDIO
    TITLE "4:cjc152_1903"
    INDEX 01 07:14:68
  TRACK 175 AUDIO
    TITLE "0:"
    INDEX 01 07:18:52
  TRACK 176 AUDIO
    TITLE "4:cjc152_1904"
    INDEX 01 07:19:46
  TRACK 177 AUDIO
    TITLE "0:"
    INDEX 01 07:23:32
  TRACK 178 AUDIO
    TITLE "4:cjc152_1905"
    INDEX 01 07:25:13
  TRACK 179 AUDIO
    TITLE "0:"
    INDEX 01 07:28:13
  TRACK 180 AUDIO
    TITLE "4:cjc152_1906"
    INDEX 01 07:29:05
  TRACK 181 AUDIO
    TITLE "0:"
    INDEX 01 07:32:33
  TRACK 182 AUDIO
    TITLE "4:cjc152_1907"
    INDEX 01 07:34:14
  TRACK 183 AUDIO
    TITLE "0:"
    INDEX 01 07:37:73
  TRACK 184 AUDIO
    TITLE "4:cjc152_1908"
    INDEX 01 07:38:74
  TRACK 185 AUDIO
    TITLE "0:"
    INDEX 01 07:43:38
  TRACK 186 AUDIO
    TITLE "4:cjc152_1909"
    INDEX 01 07:45:33
  TRACK 187 AUDIO
    TITLE "0:"
    INDEX 01 07:49:06
  TRACK 188 AUDIO
    TITLE "4:cjc152_1910"
    INDEX 01 07:49:70
  TRACK 189 AUDIO
    TITLE "0:"
    INDEX 01 07:53:48
  TRACK 190 AUDIO
    TITLE "4:cjc152_1911"
    INDEX 01 07:55:34
  TRACK 191 AUDIO
    TITLE "0:"
    INDEX 01 07:58:32
  TRACK 192 AUDIO
    TITLE "4:cjc152_1912"
    INDEX 01 07:59:26
  TRACK 193 AUDIO
    TITLE "0:"
    INDEX 01 08:02:10
  TRACK 194 AUDIO
    TITLE "4:cjc152_1913"
    INDEX 01 08:03:68
  TRACK 195 AUDIO
    TITLE "0:"
    INDEX 01 08:07:43
  TRACK 196 AUDIO
    TITLE "4:cjc152_1914"
    INDEX 01 08:08:34
  TRACK 197 AUDIO
    TITLE "0:"
    INDEX 01 08:12:24
  TRACK 198 AUDIO
    TITLE "4:cjc152_1915"
    INDEX 01 08:14:15
  TRACK 199 AUDIO
    TITLE "0:"
    INDEX 01 08:16:55
  TRACK 200 AUDIO
    TITLE "4:cjc152_1916"
    INDEX 01 08:17:47
  TRACK 201 AUDIO
    TITLE "0:"
    INDEX 01 08:20:26
  TRACK 202 AUDIO
    TITLE "4:cjc152_1917"
    INDEX 01 08:22:09
  TRACK 203 AUDIO
    TITLE "0:"
    INDEX 01 08:26:17
  TRACK 204 AUDIO
    TITLE "4:cjc152_1918"
    INDEX 01 08:27:10
  TRACK 205 AUDIO
    TITLE "0:"
    INDEX 01 08:32:00
  TRACK 206 AUDIO
    TITLE "4:cjc152_1919"
    INDEX 01 08:33:60
  TRACK 207 AUDIO
    TITLE "0:"
    INDEX 01 08:36:36
  TRACK 208 AUDIO
    TITLE "4:cjc152_1920"
    INDEX 01 08:37:28
  TRACK 209 AUDIO
    TITLE "0:"
    INDEX 01 08:41:34
  TRACK 210 AUDIO
    TITLE "4:cjc152_1921"
    INDEX 01 08:43:17
  TRACK 211 AUDIO
    TITLE "0:"
    INDEX 01 08:45:47
  TRACK 212 AUDIO
    TITLE "4:cjc152_1922"
    INDEX 01 08:46:41
  TRACK 213 AUDIO
    TITLE "0:"
    INDEX 01 08:49:67
  TRACK 214 AUDIO
    TITLE "4:cjc152_1923"
    INDEX 01 08:51:50
  TRACK 215 AUDIO
    TITLE "0:"
    INDEX 01 08:56:02
  TRACK 216 AUDIO
    TITLE "4:cjc152_1924"
    INDEX 01 08:56:71
  TRACK 217 AUDIO
    TITLE "0:"
    INDEX 01 09:02:14
  TRACK 218 AUDIO
    TITLE "4:cjc152_1925"
    INDEX 01 09:04:00
  TRACK 219 AUDIO
    TITLE "0:"
    INDEX 01 09:09:14
  TRACK 220 AUDIO
    TITLE "4:cjc152_1926"
    INDEX 01 09:10:24
  TRACK 221 AUDIO
    TITLE "0:"
    INDEX 01 09:15:42
